<svg xmlns="http://www.w3.org/2000/svg" xmlns:xlink="http://www.w3.org/1999/xlink" viewBox="0 0 123.125 124.125" fill="#fff" fill-rule="evenodd" stroke="#000" stroke-linecap="round" stroke-linejoin="round"><use xlink:href="#A" x="2.083" y="2.083"/><symbol id="A" overflow="visible"><g stroke="none" fill-rule="nonzero"><use xlink:href="#C" fill="#fcea2b"/><path d="M80.154 4.581c17.188 8.854 33.74 24.733 33.74 51.404 0 32.188-26.092 58.279-58.277 58.279-19.256 0-41.15-10.073-50.612-32.383 0 0 9.125 38.869 53.583 38.885 40.265.015 58.421-42.963 58.421-42.963C130.562 11.189 80.154 4.581 80.154 4.581z" fill="#f1b31c"/></g><use xlink:href="#C" fill="none" stroke-width="4.167" stroke-linejoin="miter"/></symbol><defs ><path id="C" d="M0 73.727c9.485 12.854 24.738 21.194 41.938 21.194 28.765 0 52.083-23.319 52.083-52.083C94.021 25.081 85.135 9.4 71.571 0c27.165 5.935 47.465 30.108 47.465 59.044 0 33.367-27.05 60.417-60.417 60.417-28.308 0-52.062-19.437-58.614-45.713z"/></defs></svg>