<svg width="318" height="168" viewBox="0 0 318 168" fill="none" xmlns="http://www.w3.org/2000/svg">
<path d="M0 16C0 7.16344 7.16344 0 16 0H302C310.837 0 318 7.16344 318 16V168H0V16Z" fill="#BCD1FF"/>
<path d="M105.647 114.482L147.447 138.773C148.333 139.29 149.76 139.29 150.646 138.782L214.159 102.107C215.045 101.599 215.045 100.77 214.159 100.253L172.359 75.962C171.482 75.4534 170.054 75.4534 169.169 75.962L105.655 112.628C104.769 113.145 104.761 113.973 105.647 114.482Z" fill="#AABAFD"/>
<path d="M155.042 116.951C154.542 117.239 154.545 117.709 155.041 117.997L165.345 123.985C165.841 124.274 166.652 124.277 167.152 123.988L187.457 112.265C187.956 111.977 187.953 111.507 187.457 111.219L177.153 105.231C176.657 104.942 175.846 104.939 175.346 105.228L155.042 116.951Z" fill="#2E4277"/>
<path d="M104.99 113.563L104.998 116.008C104.998 116.336 105.22 116.673 105.655 116.927L147.455 141.218C148.341 141.727 149.768 141.727 150.654 141.218L214.167 104.552C214.61 104.298 214.832 103.962 214.832 103.617L214.824 101.18C214.824 101.517 214.602 101.853 214.159 102.107L150.646 138.782C149.76 139.29 148.332 139.29 147.446 138.773L105.646 114.482C105.204 114.228 104.99 113.9 104.99 113.563Z" fill="#798FFE"/>
<path d="M169.045 27.5944C169.93 27.0834 170.65 27.4936 170.653 28.5106L170.766 73.1953C170.769 74.2063 170.054 75.451 169.169 75.962L106.57 112.1C105.685 112.611 104.965 112.195 104.962 111.184L104.849 66.4989C104.846 65.4819 105.561 64.2432 106.446 63.7322L169.045 27.5944Z" fill="#1B2A4F"/>
<path d="M103.168 65.5249L103.283 110.208C103.283 110.708 103.463 111.069 103.75 111.233L105.429 112.21C105.142 112.046 104.962 111.685 104.962 111.184L104.847 66.5013C104.847 65.4841 105.561 64.2455 106.446 63.7288L169.045 27.5951C169.488 27.3408 169.89 27.3162 170.185 27.4802L168.506 26.5039C168.219 26.3398 167.809 26.3644 167.366 26.6187L104.768 62.7606C103.882 63.2692 103.168 64.5078 103.168 65.5249Z" fill="#384E85"/>
<path d="M107.108 65.9539L107.217 109.122L168.506 73.7403L168.398 30.5721L107.108 65.9539Z" fill="#384E85"/>
<path d="M107.108 65.9539L107.127 73.1945L168.416 37.8126L168.398 30.5721L107.108 65.9539Z" fill="#AABAFD"/>
<path d="M158.292 39.1381C158.883 38.7969 159.363 39.059 159.365 39.7379C159.367 40.4168 158.89 41.2435 158.299 41.5847C157.718 41.9199 157.238 41.6461 157.236 40.9672C157.234 40.2882 157.711 39.4733 158.292 39.1381Z" fill="white"/>
<path d="M161.704 37.1677C162.285 36.8325 162.765 37.0945 162.767 37.7734C162.769 38.4523 162.292 39.279 161.711 39.6143C161.12 39.9554 160.64 39.6816 160.638 39.0027C160.636 38.3238 161.114 37.5089 161.704 37.1677Z" fill="white"/>
<path d="M165.107 35.2032C165.698 34.8621 166.178 35.1241 166.18 35.8031C166.182 36.482 165.705 37.3086 165.114 37.6498C164.523 37.9909 164.043 37.7172 164.041 37.0382C164.039 36.3593 164.516 35.5444 165.107 35.2032Z" fill="white"/>
<path d="M118.465 111.483L114.453 113.815L112.725 112.817L116.737 110.485L118.465 111.483Z" fill="#384E85"/>
<path d="M161.635 86.3959L157.617 88.7307L155.889 87.7328L159.906 85.3981L161.635 86.3959Z" fill="#384E85"/>
<path d="M172.427 80.1241L168.409 82.4588L166.681 81.461L170.699 79.1262L172.427 80.1241Z" fill="#384E85"/>
<path d="M165.226 94.7242L161.214 97.0558L157.646 94.9961L161.659 92.6646L165.226 94.7242Z" fill="#384E85"/>
<path d="M185.015 93.6463L180.997 95.981L177.424 93.9181L181.442 91.5834L185.015 93.6463Z" fill="#384E85"/>
<path d="M190.414 90.5088L186.396 92.8435L178.325 88.1837L182.343 85.8489L190.414 90.5088Z" fill="#384E85"/>
<path d="M176.925 82.721L169.517 87.0259L165.944 84.9631L173.352 80.6581L176.925 82.721Z" fill="#384E85"/>
<path d="M168.141 87.8254L164.124 90.1602L160.551 88.0973L164.568 85.7626L168.141 87.8254Z" fill="#384E85"/>
<path d="M181.418 85.3148L172.001 90.7871L168.434 88.7274L177.85 83.2552L181.418 85.3148Z" fill="#384E85"/>
<path d="M170.625 91.5866L166.607 93.9213L163.04 91.8617L167.058 89.5269L170.625 91.5866Z" fill="#384E85"/>
<path d="M175.123 94.1836L171.106 96.5183L167.533 94.4555L171.55 92.1207L175.123 94.1836Z" fill="#384E85"/>
<path d="M162.742 90.9631L158.725 93.2978L155.152 91.235L159.169 88.9002L162.742 90.9631Z" fill="#384E85"/>
<path d="M156.236 89.5335L152.223 91.865L150.495 90.8672L154.507 88.5356L156.236 89.5335Z" fill="#384E85"/>
<path d="M150.842 92.6678L146.825 95.0025L145.096 94.0047L149.114 91.6699L150.842 92.6678Z" fill="#384E85"/>
<path d="M153.538 106.727L149.521 109.062L145.948 106.999L149.965 104.664L153.538 106.727Z" fill="#384E85"/>
<path d="M145.443 95.8052L141.431 98.1368L139.703 97.1389L143.715 94.8074L145.443 95.8052Z" fill="#384E85"/>
<path d="M151.95 97.2348L147.938 99.5664L144.365 97.5035L148.377 95.172L151.95 97.2348Z" fill="#384E85"/>
<path d="M140.05 98.9395L136.032 101.274L134.304 100.276L138.321 97.9417L140.05 98.9395Z" fill="#384E85"/>
<path d="M146.556 100.369L142.539 102.704L138.966 100.641L142.983 98.3063L146.556 100.369Z" fill="#384E85"/>
<path d="M154.433 100.996L150.421 103.328L146.854 101.268L150.866 98.9363L154.433 100.996Z" fill="#384E85"/>
<path d="M134.656 102.074L130.638 104.409L128.91 103.411L132.928 101.076L134.656 102.074Z" fill="#384E85"/>
<path d="M141.163 103.504L137.146 105.838L133.573 103.775L137.59 101.441L141.163 103.504Z" fill="#384E85"/>
<path d="M158.932 103.593L154.92 105.925L151.347 103.862L155.359 101.53L158.932 103.593Z" fill="#384E85"/>
<path d="M149.04 104.13L145.023 106.465L141.455 104.405L145.473 102.071L149.04 104.13Z" fill="#384E85"/>
<path d="M129.257 105.211L125.24 107.546L123.511 106.548L127.529 104.214L129.257 105.211Z" fill="#384E85"/>
<path d="M135.764 106.641L131.747 108.976L128.174 106.913L132.191 104.578L135.764 106.641Z" fill="#384E85"/>
<path d="M143.647 107.265L139.629 109.599L136.062 107.54L140.08 105.205L143.647 107.265Z" fill="#384E85"/>
<path d="M130.371 109.775L126.353 112.11L122.78 110.047L126.798 107.712L130.371 109.775Z" fill="#384E85"/>
<path d="M148.145 109.862L144.127 112.196L140.554 110.134L144.572 107.799L148.145 109.862Z" fill="#384E85"/>
<path d="M138.248 110.402L134.23 112.737L130.663 110.677L134.681 108.343L138.248 110.402Z" fill="#384E85"/>
<path d="M142.746 112.999L138.728 115.334L135.155 113.271L139.173 110.936L142.746 112.999Z" fill="#384E85"/>
<path d="M163.661 106.056L143.226 117.931L139.653 115.868L160.088 103.993L163.661 106.056Z" fill="#384E85"/>
<path d="M137.352 116.133L133.335 118.468L129.762 116.405L133.779 114.071L137.352 116.133Z" fill="#384E85"/>
<path d="M132.854 113.536L123.443 119.006L119.876 116.946L129.287 111.477L132.854 113.536Z" fill="#384E85"/>
<path d="M131.954 119.271L127.942 121.602L124.369 119.54L128.381 117.208L131.954 119.271Z" fill="#384E85"/>
<path d="M141.851 118.73L132.44 124.199L128.867 122.137L138.278 116.668L141.851 118.73Z" fill="#384E85"/>
<path d="M123.864 108.346L119.846 110.68L118.118 109.683L122.136 107.348L123.864 108.346Z" fill="#384E85"/>
<path d="M167.028 83.2616L163.011 85.5963L161.282 84.5985L165.3 82.2637L167.028 83.2616Z" fill="#384E85"/>
<path d="M157.349 94.0974L153.331 96.4321L149.758 94.3693L153.776 92.0345L157.349 94.0974Z" fill="#384E85"/>
<path d="M168.829 103.052L164.811 105.387L161.238 103.324L165.256 100.99L168.829 103.052Z" fill="#384E85"/>
<path d="M164.331 100.455L160.313 102.79L156.74 100.727L160.758 98.3926L164.331 100.455Z" fill="#384E85"/>
<path d="M159.833 97.8585L155.815 100.193L152.248 98.1336L156.266 95.7988L159.833 97.8585Z" fill="#384E85"/>
<path d="M179.621 96.7806L175.604 99.1153L172.031 97.0525L176.048 94.7177L179.621 96.7806Z" fill="#384E85"/>
<path d="M174.222 99.9181L170.21 102.25L166.637 100.187L170.649 97.8553L174.222 99.9181Z" fill="#384E85"/>
<path d="M124.972 112.913L118.951 116.412L115.378 114.349L121.399 110.85L124.972 112.913Z" fill="#384E85"/>
<path d="M112.805 77.3641C113.583 76.915 114.043 77.0132 114.371 77.311L113.93 78.0269C113.647 77.7423 113.285 77.7654 112.842 78.0211C111.941 78.5414 111.369 79.6736 111.372 80.7621C111.376 81.8463 111.952 82.3248 112.853 81.8045C113.296 81.5488 113.657 81.1407 113.937 80.5403L114.381 80.7493C114.055 81.4294 113.598 82.0569 112.82 82.506C111.549 83.2397 110.691 82.6093 110.687 81.1579C110.683 79.7065 111.535 78.0978 112.805 77.3641Z" fill="#D9DDF6"/>
<path d="M115.67 79.7212C115.932 79.57 116.156 79.6977 116.157 79.9986C116.158 80.3039 115.935 80.6851 115.673 80.8363C115.408 80.9897 115.187 80.8642 115.187 80.5589C115.186 80.258 115.404 79.8746 115.67 79.7212Z" fill="#D9DDF6"/>
<path d="M116.003 76.5218C116.193 76.1952 116.193 75.8413 116.004 75.7314C115.815 75.6214 115.508 75.7971 115.318 76.1237C115.128 76.4503 115.127 76.8042 115.317 76.9141C115.506 77.024 115.813 76.8484 116.003 76.5218Z" fill="#D9DDF6"/>
<path d="M117.144 72.9091L119.255 78.8704L118.735 79.1705L116.624 73.2093L117.144 72.9091Z" fill="#D9DDF6"/>
<path d="M121.259 69.8465L124.944 71.9514L121.283 78.2983L120.691 77.9614L123.774 72.6272L120.671 70.8637L121.259 69.8465Z" fill="#D9DDF6"/>
<path d="M129.06 71.9597L129.064 73.5439L125.21 75.7694L125.205 74.1853L129.06 71.9597Z" fill="#D9DDF6"/>
</svg>
